<?xml version="1.0" encoding="utf-8"?>
<!-- Generator: Adobe Illustrator 17.0.0, SVG Export Plug-In . SVG Version: 6.00 Build 0)  -->
<!DOCTYPE svg PUBLIC "-//W3C//DTD SVG 1.1//EN" "http://www.w3.org/Graphics/SVG/1.1/DTD/svg11.dtd">
<svg version="1.1" id="Layer_1" xmlns="http://www.w3.org/2000/svg" xmlns:xlink="http://www.w3.org/1999/xlink" x="0px" y="0px"
	 width="120px" height="51px" viewBox="0 0 120 51" enable-background="new 0 0 120 51" xml:space="preserve">
<g>
	<g>
		<polygon fill="#FFFFFF" points="36.676,23.609 36.676,29.024 53.408,29.024 53.408,23.609 42.541,23.609 		"/>
		<rect x="104.167" y="23.609" fill="#8F9EBC" width="11.892" height="5.414"/>
		<rect x="57.333" y="2.403" fill="#FFFFFF" width="5.866" height="13.31"/>
		<rect x="57.333" y="15.713" fill="#8F9EBC" width="5.866" height="13.31"/>
		<rect x="36.675" y="2.403" fill="#8F9EBC" width="5.866" height="21.206"/>
		<g>
			<polygon fill="#FFFFFF" points="88.118,2.403 80.75,21.111 83.867,29.024 94.352,2.403 			"/>
			<polygon fill="#8F9EBC" points="73.381,2.403 67.148,2.403 77.633,29.024 77.633,29.024 83.867,29.024 			"/>
		</g>
		<rect x="104.167" y="12.781" fill="#8F9EBC" width="11.892" height="5.414"/>
		<rect x="104.167" y="2.403" fill="#FFFFFF" width="11.892" height="5.414"/>
		<polygon fill="#8F9EBC" points="98.301,2.403 98.301,12.781 104.167,12.781 104.167,7.817 104.167,2.403 		"/>
		<polygon fill="#FFFFFF" points="98.301,29.024 104.167,29.024 104.167,23.609 104.167,18.195 104.167,12.781 98.301,12.781 		"/>
		<g>
			<path fill="#8F9EBC" d="M12.782,21.625c-3.278-3.277-3.278-8.591,0-11.869c3.278-3.278,8.591-3.278,11.869,0l3.956-3.956
				c-5.464-5.44-14.303-5.433-19.758,0.021S3.387,20.117,8.827,25.581L12.782,21.625z"/>
			<path fill="#FFFFFF" d="M28.629,25.603c5.462-5.462,5.462-14.318,0-19.781c-0.007-0.008-0.015-0.014-0.023-0.022l-3.956,3.956
				c3.278,3.278,3.278,8.591,0,11.869c-3.278,3.277-8.591,3.278-11.869,0l-3.956,3.956c0.007,0.007,0.014,0.015,0.022,0.023
				C14.311,31.066,23.167,31.066,28.629,25.603"/>
		</g>
	</g>
	<g>
		<path fill="#FFFFFF" d="M35.295,47.744l1.02-1.222c0.706,0.583,1.446,0.953,2.343,0.953c0.706,0,1.132-0.28,1.132-0.74v-0.022
			c0-0.437-0.269-0.662-1.581-0.998c-1.581-0.404-2.601-0.841-2.601-2.399v-0.023c0-1.424,1.144-2.366,2.747-2.366
			c1.144,0,2.119,0.359,2.915,0.998l-0.897,1.301c-0.695-0.482-1.379-0.774-2.04-0.774c-0.662,0-1.009,0.303-1.009,0.684v0.022
			c0,0.516,0.336,0.684,1.693,1.031c1.592,0.415,2.489,0.987,2.489,2.355v0.022c0,1.559-1.189,2.433-2.882,2.433
			C37.437,49,36.237,48.585,35.295,47.744z"/>
		<path fill="#FFFFFF" d="M46.308,40.983H47.9l3.364,7.904h-1.805l-0.718-1.76h-3.319l-0.718,1.76h-1.76L46.308,40.983z
			 M48.124,45.603l-1.043-2.545l-1.043,2.545H48.124z"/>
		<path fill="#FFFFFF" d="M53.082,41.039h5.976v1.57h-4.249v1.671h3.745v1.57h-3.745v3.038h-1.727V41.039z"/>
		<path fill="#FFFFFF" d="M61.355,41.039h5.92v1.536H63.07v1.592h3.7v1.536h-3.7v1.648h4.26v1.536h-5.976V41.039z"/>
		<path fill="#FFFFFF" d="M71.939,42.632h-2.388v-1.592h6.503v1.592h-2.388v6.256h-1.727V42.632z"/>
		<path fill="#FFFFFF" d="M80.83,45.793l-3.016-4.754h2.018l1.872,3.151l1.906-3.151h1.962l-3.016,4.72v3.128H80.83V45.793z"/>
	</g>
</g>
</svg>
