<svg version="1" xmlns="http://www.w3.org/2000/svg" width="1218.667" height="1218.667" viewBox="0 0 914.000000 914.000000"><path d="M402.5 1c-2.7.4-7.5 1.1-10.5 1.5-6.9.8-29.7 5.2-37 7-3 .8-6.6 1.6-8 1.9-7.9 1.6-26 6.9-41 12.2-50.5 17.5-100.1 45.6-141 79.8-26.8 22.5-51.5 48.4-72.8 76.3-12.2 16-37.2 55-37.2 58.1 0 .5-.7 1.5-1.5 2.2-.8.7-1.5 2-1.5 2.9 0 .9-.5 2.2-1.1 2.8-3.6 3.6-21.5 45.9-28.4 67.3-7 21.4-10.2 34.4-15 59.5-2.5 13.5-2.9 16-4.1 26-.3 3.3-.8 6.9-1 7.9-2.5 13.9-2.5 83.3 0 97.2.2 1 .7 5 1.1 8.8.4 3.8.9 8.1 1.1 9.5.3 1.4.9 5.3 1.5 8.6s1.2 6.9 1.4 8c.3 1.9 1.8 9.4 2 10.5.1.3.5 2.3.9 4.5 1.2 6.1 6.4 25.8 9.6 36.5 8.7 29.1 23.3 62.9 39.8 92 5.4 9.6 21.5 34.9 24.4 38.5.5.5 4.1 5.3 8 10.5 41.9 56.1 99.4 103.7 163.3 135 42.5 20.9 85.4 34.4 131.9 41.6 2.1.3 4.6.7 5.5.9.9.1 4.8.6 8.6 1 3.9.4 7.9.9 8.9 1.1 14.2 2.6 73.2 2.5 94.6-.1 1.9-.2 6-.7 9-1 4.6-.5 11.9-1.6 31.5-5 1.7-.3 4.1-.8 5.5-1.1 4.9-1.1 6.5-1.5 9-2 6.7-1.3 27-7 39.5-11.1 56-18.2 107.5-46.9 152.5-84.8 17.9-15.1 39.2-36.1 52.5-52 2.8-3.3 6.1-7.2 7.5-8.8 1.3-1.5 5.7-7.2 9.7-12.5 4-5.3 7.7-10.2 8.1-10.7 7.5-9.3 29.2-45.5 37.6-63 3.1-6.6 6.2-12.9 6.8-14 1.8-3.2 8.7-20.2 13-32 5.6-15.6 11.3-34.4 15.3-50.5 1.8-7.4 7.5-37.9 8-43 .4-3.6.8-6.7 1-7 1.9-3.3 2.9-87 1.3-102-1-9.1-2.7-22-3.3-25-.5-2.5-.8-4.8-2.1-12.4-.3-2.2-1.2-6.9-2-10.5-.8-3.6-1.7-7.7-2-9-2.5-12-7.9-31.1-13.1-46.1-4-11.7-6.9-19.2-15.1-38.5-.9-2.2-5.3-11.2-9.7-20-40.2-79.4-103-145.5-180.5-190-19.2-11.1-32.8-17.7-57.5-28-9.9-4.1-31.3-11.3-49-16.5-9.2-2.6-36.4-8.6-44-9.6-3.3-.4-6.2-.9-6.5-.9-.3-.1-2.7-.5-5.5-.9-2.7-.4-6.1-1-7.5-1.4C511.2.3 408.2.1 402.5 1zM482 181.4c4.1.4 8.2.9 9 1.1.8.2 4 .7 7 1 3 .3 7.1 1 9 1.5 1.9.5 5.1 1.2 7 1.5 18.2 3.1 49 14.1 68.9 24.7 12.6 6.6 11.8 6.2 25.5 15.3 22.9 15.1 42.2 32.4 60.1 54 6.3 7.6 17.5 22.9 18.4 25 .2.5 1.6 2.8 3.1 5 4 5.8 14.3 25.6 18.5 35.5 2 4.7 4 9.4 4.5 10.5 4.7 10.7 12.7 40.9 14.6 55.1.3 2.7.8 5.8 1 6.9 3.1 16.1 2.5 60.5-1.1 79.5-.3 1.9-.8 4.6-1 6-1 7.2-4.1 19.5-8.7 34.9-1.3 4.3-7.4 20.5-9.5 25.1-22.8 50.1-53.9 87.5-98.3 118.1-3.6 2.5-7.2 4.8-8 5.2-.8.4-4 2.3-7 4.1-25.8 15.8-64.9 29.9-95 34.1-1.9.3-4.9.8-6.7 1.1-16.1 2.6-63.2 2.5-73.3-.1-.8-.2-3.5-.6-6-.9-2.5-.3-5.6-.8-7-1.1-1.4-.3-3.8-.8-5.5-1.1-7.2-1.2-22.9-5.6-33.5-9.2-46-15.8-85.9-42.7-119-80.2-11.1-12.5-26.2-34.8-35.3-52-12.4-23.4-24.8-60.2-27.3-80.5 0-.6-.4-2.6-.7-4.5-2.9-15.8-3.9-43-2.4-64.5.7-10.5 3.1-26.5 5.1-35 .2-1.1 1.2-5.2 2.1-9 8.4-35.5 29-77.3 52.2-105.6 10.1-12.2 28.7-31.1 39.8-40.1 29.5-24 63.3-41.8 98.5-51.8 8.6-2.4 7.9-2.3 18.5-4.5 4.4-.9 8.9-1.9 10-2.1 1.1-.2 4.3-.7 7-1 2.8-.3 5.6-.7 6.2-.9.7-.2 5.7-.7 11-1.1 5.4-.3 9.9-.7 10-.9.6-.4 31.3.3 38.3.9z"/></svg>